<svg width="44" height="43" viewBox="0 0 44 43" fill="none" xmlns="http://www.w3.org/2000/svg">
<circle cx="22" cy="21" r="22" fill="url(#paint0_linear_887_14293)"/>
<circle cx="22" cy="21" r="21" fill="#08090B"/>
<circle cx="21.5" cy="21.5" r="20.5" fill="#131D1F"/>
<path d="M19.2047 25.1335C18.6829 25.1335 18.235 25.1183 17.861 25.0878C17.4914 25.0574 17.1522 25.0074 16.8435 24.9378L17 23.6855C17.4566 23.755 17.8589 23.8072 18.2067 23.842C18.559 23.8768 18.8916 23.8942 19.2047 23.8942C19.9048 23.8942 20.4114 23.8268 20.7245 23.692C21.0419 23.5528 21.2006 23.3332 21.2006 23.0332C21.2006 22.8245 21.1441 22.6701 21.0311 22.5701C20.9223 22.4657 20.7528 22.3853 20.5223 22.3287L18.9308 21.9243C18.2481 21.7504 17.7458 21.5351 17.424 21.2786C17.1066 21.022 16.9479 20.6328 16.9479 20.111C16.9479 19.3544 17.237 18.8065 17.8154 18.4673C18.3981 18.1281 19.3352 17.9586 20.6266 17.9586C20.9615 17.9586 21.2724 17.9694 21.5594 17.9912C21.8507 18.0086 22.1486 18.0412 22.453 18.089L22.3095 19.2892C21.9573 19.2544 21.6464 19.2305 21.3768 19.2174C21.1071 19.2044 20.8441 19.1979 20.5875 19.1979C19.8135 19.1979 19.2525 19.2653 18.9047 19.4001C18.5568 19.5305 18.3829 19.7458 18.3829 20.0458C18.3829 20.2458 18.4546 20.3915 18.5981 20.4828C18.7416 20.5698 18.9612 20.6502 19.2569 20.7242L20.5353 21.0373C21.2615 21.2112 21.792 21.4438 22.1269 21.7352C22.466 22.0265 22.6356 22.4505 22.6356 23.0071C22.6356 23.7507 22.3638 24.2921 21.8203 24.6312C21.2767 24.9661 20.4049 25.1335 19.2047 25.1335Z" fill="#00E404"/>
<path d="M27.3319 25.003V18.4804H28.7147V25.003H27.3319ZM28.5843 25.003V23.7898H30.8411V25.003H28.5843ZM25.0881 19.3022V18.089H28.7147V19.3022H25.0881ZM27.9777 16.9932C27.7124 16.9932 27.4841 16.8997 27.2928 16.7127C27.1058 16.5214 27.0123 16.2931 27.0123 16.0279C27.0123 15.7582 27.1058 15.53 27.2928 15.343C27.4841 15.156 27.7124 15.0625 27.9777 15.0625C28.2473 15.0625 28.4756 15.156 28.6626 15.343C28.8495 15.53 28.943 15.7582 28.943 16.0279C28.943 16.2931 28.8495 16.5214 28.6626 16.7127C28.4756 16.8997 28.2473 16.9932 27.9777 16.9932Z" fill="#00E404"/>
<path d="M12.614 17.96C12.6601 17.9595 12.7067 17.958 12.7537 17.958C13.0884 17.958 13.3993 17.9685 13.6863 17.9902C13.9776 18.0076 14.2754 18.041 14.5798 18.0889L14.4363 19.2891C14.0841 19.2543 13.7732 19.2298 13.5037 19.2168C13.2341 19.2038 12.9711 19.1973 12.7146 19.1973C11.9409 19.1973 11.3799 19.2647 11.032 19.3994C10.6842 19.5298 10.5096 19.7451 10.5095 20.0449C10.5095 20.245 10.5818 20.3911 10.7253 20.4824C10.8688 20.5693 11.0882 20.6498 11.3835 20.7236L12.6619 21.0371C13.3879 21.211 13.9188 21.4431 14.2537 21.7344C14.5928 22.0257 14.7625 22.4502 14.7625 23.0068C14.7624 23.7503 14.4905 24.2917 13.947 24.6309C13.6209 24.8317 13.1764 24.9704 12.614 25.0508V26.8242H11.156V25.1299C10.7087 25.1268 10.3193 25.1139 9.98804 25.0869C9.61846 25.0565 9.27917 25.0071 8.97046 24.9375L9.12671 23.6846C9.58329 23.7541 9.98587 23.807 10.3337 23.8418C10.6859 23.8766 11.0187 23.8936 11.3318 23.8936C12.0318 23.8935 12.5383 23.8262 12.8513 23.6914C13.1688 23.5523 13.3279 23.3323 13.3279 23.0322C13.3278 22.8237 13.2709 22.6693 13.158 22.5693C13.0492 22.465 12.8796 22.3846 12.6492 22.3281L11.0574 21.9238C10.3748 21.7499 9.87228 21.5348 9.55054 21.2783C9.23316 21.0218 9.07495 20.6321 9.07495 20.1104C9.07498 19.3538 9.36391 18.806 9.94214 18.4668C10.2486 18.2884 10.6534 18.1578 11.156 18.0732V16.2588H12.614V17.96Z" fill="#00E404"/>
<rect x="33.2585" y="15.0703" width="1.771" height="11.7645" fill="#088819"/>
<defs>
<linearGradient id="paint0_linear_887_14293" x1="22" y1="-1" x2="22" y2="43" gradientUnits="userSpaceOnUse">
<stop stop-color="#CBDFE6"/>
<stop offset="1" stop-color="#686868"/>
</linearGradient>
</defs>
</svg>
