<svg xmlns="http://www.w3.org/2000/svg" viewBox="0 0 800 800" fill="none">
  <!-- ssi.fun favicon — mark from official X (@ssidotfun) avatar, dark rounded tile -->
  <rect width="800" height="800" rx="176" fill="#0c0d0f"/>
  <path fill-rule="evenodd" fill="#D3DED5" d="M458,97 L440,98 L386,138 L384,158 L413,188 L362,229 L364,251 L389,287 L400,288 L401,302 L343,348 L343,365 L397,442 L212,569 L212,592 L356,738 L375,737 L495,607 L589,493 L589,477 L437,361 L496,316 L494,292 L453,247 L443,247 L439,238 L474,206 L473,188 L441,155 L465,134 L465,115 Z"/>
  <path fill-rule="evenodd" fill="#1CA83D" d="M451,104 L391,148 L424,186 L411,205 L369,236 L396,280 L398,270 L409,273 L410,264 L418,265 L420,256 L433,262 L431,270 L437,270 L435,250 L429,240 L430,227 L467,199 L429,156 L429,152 L458,127 Z"/>
  <path fill-rule="evenodd" fill="#5EFE90" d="M443,255 L440,255 L443,258 L441,267 L427,268 L424,275 L418,276 L416,283 L407,283 L411,306 L350,355 L403,431 L407,446 L379,469 L373,470 L257,551 L256,559 L245,560 L241,570 L227,572 L227,579 L219,583 L274,644 L363,731 L368,730 L364,722 L369,721 L372,726 L380,713 L386,712 L401,696 L401,686 L409,687 L514,569 L510,566 L511,560 L516,559 L519,563 L552,523 L550,513 L560,513 L582,486 L481,405 L476,405 L470,397 L465,397 L443,377 L438,377 L426,363 L427,355 L489,309 Z"/>
  <path fill-rule="evenodd" fill="#D3DED5" d="M 408.0,76.7 a 25.8,25.8 0 1,0 51.6,0 a 25.8,25.8 0 1,0 -51.6,0 Z M 418.0,76.7 a 15.8,15.8 0 1,0 31.6,0 a 15.8,15.8 0 1,0 -31.6,0 Z"/>
</svg>
